<?xml version="1.0" encoding="utf-8"?>
<!-- Generator: Adobe Illustrator 27.5.0, SVG Export Plug-In . SVG Version: 6.00 Build 0)  -->
<svg version="1.1" xmlns="http://www.w3.org/2000/svg" xmlns:xlink="http://www.w3.org/1999/xlink" x="0px" y="0px"
	 viewBox="0 0 1122 1122" style="enable-background:new 0 0 1122 1122;" xml:space="preserve">
<g id="BG">
	<rect x="0" y="0" style="fill:#E8EAEA;" width="1122" height="1122"/>
	<rect x="0" y="803.883" style="fill:#030930;" width="1122" height="318.107"/>
</g>
<g id="Objects">
	
		<ellipse transform="matrix(0.9854 -0.1702 0.1702 0.9854 -155.143 90.1162)" style="fill:#A3A29D;" cx="447.99" cy="949.858" rx="320.662" ry="77.786"/>
	<g>
		<rect x="394.937" y="483.304" style="fill:#447762;" width="369.553" height="408.79"/>
		<ellipse style="fill:#03272C;" cx="579.717" cy="891.638" rx="184.777" ry="76.192"/>
		<ellipse style="fill:#03272C;" cx="579.71" cy="482.848" rx="184.777" ry="76.192"/>
	</g>
	<path style="fill:#CBA390;" d="M906.005,0L774.828,232.685c0,0-2.826,12.116-19.027,1.767
		c-16.201-10.349-109.768-98.603-124.906-85.344c-18.253,15.988,74.925,65.291,59.879,73.461
		c-15.045,8.17-130.477-56.875-136.463-36.575c-6.28,21.292,91.016,47.874,79.083,53.122c-10.575,4.651-37.363,4.439-46.513,9.24
		c-9.15,4.801-74.087,38.898-68.066,53.823c8.536,21.157,80.909-50.667,106.568-30.075c0.371,0.297,4.391,7.777-1.297,13.385
		c-1.607,1.585-3.554,4.281-16.54,11.837c-28.837,16.779-47.927,55.25-32.242,114.753c0,0,6.007,14.541,14.758,0.887
		c12.378-19.314-11.577-79.076,45.324-98.471c56.901-19.395,82.448,61.206,39.25,88.359c-43.198,27.154-53.552,14.427-52.856,32.566
		c0.848,22.071,55.665-0.795,74.916-18.387c19.25-17.592,94.616-119.275,133.677-154.511
		C860.981,234.912,1022.131,70.063,1090.453,0H906.005z"/>
	<rect x="522.176" y="472.57" style="fill:#FFFFFF;" width="124.796" height="10.758"/>
	<g>
		<g>
			
				<ellipse transform="matrix(0.7071 -0.7071 0.7071 0.7071 -383.0808 642.9587)" style="fill:#FEEB4A;" cx="584.579" cy="783.899" rx="54.241" ry="54.241"/>
			
				<ellipse transform="matrix(0.7071 -0.7071 0.7071 0.7071 -382.9943 642.9945)" style="fill:#EC9E26;" cx="584.666" cy="783.812" rx="46.023" ry="46.023"/>
			
				<ellipse transform="matrix(0.0245 -0.9997 0.9997 0.0245 -212.4978 1352.8805)" style="fill:#FECA30;" cx="586.973" cy="785.325" rx="43.447" ry="43.421"/>
		</g>
		<g>
			<g>
				<path style="fill:#0E513C;" d="M584.179,815.411l-2.104-1.249c4.908-8.271,1.73-28.984,1.698-29.192l2.417-0.38
					C586.329,785.476,589.536,806.384,584.179,815.411z"/>
			</g>
			<g>
				<path style="fill:#657A44;" d="M585.974,786.729c0,0-4.238-21.794-22.804-19.475
					C563.17,767.253,563.978,784.179,585.974,786.729z"/>
				<path style="fill:#657A44;" d="M607.158,756.024c0,0-29.55,8.695-22.609,30.873
					C584.549,786.897,607.993,783.163,607.158,756.024z"/>
			</g>
		</g>
	</g>
	<g>
		<path style="fill:#FECA30;" d="M433.438,896.684l0.626,8.763c0.021,0.292,0.098,0.579,0.238,0.837
			c1.258,2.314,9.061,12.908,46.108,11.853c2.363-0.067,6.205-0.43,8.543-0.784c5.012-0.76,11.848-1.723,21.79-9.229
			c0.53-0.4,0.838-1.033,0.838-1.697l0.815-10.666c0-1.186-0.968-2.144-2.154-2.132l-74.698,0.771
			C434.314,894.412,433.35,895.458,433.438,896.684z"/>
		<g>
			<g>
				
					<ellipse transform="matrix(1 -0.0061 0.0061 1 -5.4855 2.9215)" style="fill:#FEEB4A;" cx="472.836" cy="894.423" rx="39.555" ry="14.678"/>
				
					<ellipse transform="matrix(1 -0.0061 0.0061 1 -5.4855 2.9211)" style="fill:#EC9E26;" cx="472.764" cy="894.403" rx="33.561" ry="12.454"/>
				
					<ellipse transform="matrix(1 -0.0061 0.0061 1 -5.4108 2.8703)" style="fill:#FECA30;" cx="471.268" cy="894.911" rx="31.665" ry="11.757"/>
			</g>
			<g>
				<g>
					<path style="fill:#0E513C;" d="M476.801,903.718c-5.382-2.402-5.383-8.784-5.381-9.054l2.447,0.02
						c-0.001,0.206,0.027,5.057,3.931,6.8L476.801,903.718z"/>
				</g>
				<g>
					<path style="fill:#657A44;" d="M472.144,895.24c0,0,0.644-6.007,14.282-6.221C486.426,889.019,487.716,893.573,472.144,895.24z
						"/>
					<path style="fill:#657A44;" d="M453.478,887.996c0,0,22.261,0.995,19.711,7.225
						C473.19,895.221,455.879,895.277,453.478,887.996z"/>
				</g>
			</g>
		</g>
	</g>
	<g>
		<path style="fill:#FECA30;" d="M622.67,859.16l0.626,8.763c0.021,0.292,0.098,0.579,0.238,0.837
			c1.258,2.314,9.061,12.908,46.108,11.853c2.363-0.067,6.205-0.43,8.543-0.784c5.012-0.76,11.848-1.723,21.79-9.229
			c0.53-0.4,0.838-1.033,0.838-1.697l0.815-10.666c0-1.186-0.968-2.144-2.154-2.132l-74.698,0.771
			C623.546,856.889,622.583,857.935,622.67,859.16z"/>
		<g>
			<g>
				
					<ellipse transform="matrix(1 -0.0061 0.0061 1 -5.2529 4.0844)" style="fill:#FEEB4A;" cx="662.068" cy="856.899" rx="39.555" ry="14.678"/>
				
					<ellipse transform="matrix(1 -0.0061 0.0061 1 -5.2537 4.0847)" style="fill:#EC9E26;" cx="661.996" cy="856.88" rx="33.561" ry="12.454"/>
				
					<ellipse transform="matrix(1 -0.0061 0.0061 1 -5.1812 4.0165)" style="fill:#FECA30;" cx="660.5" cy="857.387" rx="31.665" ry="11.757"/>
			</g>
			<g>
				<g>
					<path style="fill:#0E513C;" d="M666.034,866.195c-5.382-2.402-5.383-8.784-5.381-9.054l2.447,0.02
						c-0.001,0.206,0.027,5.058,3.931,6.8L666.034,866.195z"/>
				</g>
				<g>
					<path style="fill:#657A44;" d="M661.376,857.717c0,0,0.644-6.007,14.282-6.221
						C675.658,851.496,676.948,856.049,661.376,857.717z"/>
					<path style="fill:#657A44;" d="M642.711,850.473c0,0,22.261,0.995,19.711,7.225
						C662.422,857.698,645.111,857.753,642.711,850.473z"/>
				</g>
			</g>
		</g>
	</g>
	<g>
		<path style="fill:#FECA30;" d="M423.65,879.555l0.626,8.763c0.021,0.292,0.098,0.579,0.238,0.837
			c1.258,2.314,9.061,12.908,46.108,11.853c2.363-0.067,6.205-0.43,8.543-0.784c5.012-0.76,11.848-1.723,21.79-9.229
			c0.53-0.4,0.838-1.033,0.838-1.697l0.815-10.666c0-1.186-0.968-2.144-2.154-2.132l-74.698,0.771
			C424.526,877.284,423.562,878.33,423.65,879.555z"/>
		<g>
			<g>
				
					<ellipse transform="matrix(1 -0.0061 0.0061 1 -5.3807 2.8612)" style="fill:#FEEB4A;" cx="463.048" cy="877.294" rx="39.555" ry="14.678"/>
				
					<ellipse transform="matrix(1 -0.0061 0.0061 1 -5.3809 2.8609)" style="fill:#EC9E26;" cx="462.976" cy="877.275" rx="33.561" ry="12.454"/>
				
					<ellipse transform="matrix(1 -0.0061 0.0061 1 -5.3068 2.8105)" style="fill:#FECA30;" cx="461.48" cy="877.782" rx="31.665" ry="11.757"/>
			</g>
			<g>
				<g>
					<path style="fill:#0E513C;" d="M467.013,886.589c-5.382-2.402-5.383-8.784-5.381-9.054l2.447,0.02
						c-0.001,0.206,0.027,5.057,3.931,6.8L467.013,886.589z"/>
				</g>
				<g>
					<path style="fill:#657A44;" d="M462.355,878.112c0,0,0.644-6.007,14.282-6.221
						C476.638,871.891,477.928,876.444,462.355,878.112z"/>
					<path style="fill:#657A44;" d="M443.69,870.867c0,0,22.261,0.995,19.712,7.225C463.402,878.093,446.09,878.148,443.69,870.867z
						"/>
				</g>
			</g>
		</g>
	</g>
	<g>
		<path style="fill:#FECA30;" d="M518.758,855.899l-0.626,8.763c-0.021,0.292-0.098,0.579-0.238,0.837
			c-1.258,2.314-9.061,12.909-46.108,11.855c-2.363-0.067-6.205-0.43-8.543-0.784c-5.012-0.76-11.848-1.722-21.79-9.228
			c-0.53-0.4-0.838-1.033-0.838-1.697l-0.816-10.666c0-1.186,0.968-2.144,2.154-2.132l74.698,0.769
			C517.882,853.628,518.846,854.674,518.758,855.899z"/>
		<g>
			<g>
				
					<ellipse transform="matrix(0.0061 -1 1 0.0061 -377.1918 1327.7755)" style="fill:#FEEB4A;" cx="479.36" cy="853.639" rx="14.678" ry="39.555"/>
				<path style="fill:#EC9E26;" d="M512.605,855.684c-2.811,6.784-19.942,11.359-38.263,10.219
					c-18.321-1.14-30.894-7.563-28.083-14.347c2.811-6.784,19.942-11.359,38.263-10.22
					C502.843,842.477,515.416,848.9,512.605,855.684z"/>
				
					<ellipse transform="matrix(0.006 -1 1 0.006 -376.0801 1329.9031)" style="fill:#FECA30;" cx="480.928" cy="854.128" rx="11.757" ry="31.665"/>
			</g>
			<g>
				<g>
					<path style="fill:#0E513C;" d="M475.395,862.935l-0.997-2.234c3.933-1.756,3.932-6.746,3.931-6.796l2.447-0.023
						C480.778,854.151,480.778,860.533,475.395,862.935z"/>
				</g>
				<g>
					<path style="fill:#657A44;" d="M480.053,854.457c0,0-0.644-6.007-14.282-6.22C465.77,848.237,464.48,852.79,480.053,854.457z"
						/>
					<path style="fill:#657A44;" d="M498.718,847.213c0,0-22.261,0.995-19.711,7.226
						C479.007,854.438,496.318,854.493,498.718,847.213z"/>
				</g>
			</g>
		</g>
	</g>
	<g>
		<path style="fill:#FECA30;" d="M727.597,877.84l-1.678,9.726c-0.056,0.325-0.171,0.637-0.35,0.909
			c-1.608,2.448-11.152,13.432-50.541,8.177c-2.513-0.335-6.568-1.163-9.02-1.817c-5.258-1.401-12.437-3.229-22.175-12.713
			c-0.519-0.505-0.774-1.247-0.698-1.989l0.36-12.012c0.137-1.326,1.28-2.29,2.544-2.146l79.577,9.08
			C726.925,875.204,727.832,876.479,727.597,877.84z"/>
		<g>
			<g>
				
					<ellipse transform="matrix(0.1091 -0.994 0.994 0.1091 -254.7756 1457.6804)" style="fill:#FEEB4A;" cx="685.84" cy="870.977" rx="16.494" ry="42.409"/>
				
					<ellipse transform="matrix(0.1091 -0.994 0.994 0.1091 -254.6915 1457.7473)" style="fill:#EC9E26;" cx="685.919" cy="870.964" rx="13.995" ry="35.983"/>
				
					<ellipse transform="matrix(0.109 -0.994 0.994 0.109 -253.9943 1460.0153)" style="fill:#FECA30;" cx="687.456" cy="871.695" rx="13.212" ry="33.95"/>
			</g>
			<g>
				<g>
					<path style="fill:#0E513C;" d="M680.537,880.784l-0.803-2.311c4.473-1.556,5.058-7.248,5.063-7.305l2.436,0.229
						C687.206,871.694,686.48,878.717,680.537,880.784z"/>
				</g>
				<g>
					<path style="fill:#657A44;" d="M686.484,871.968c0,0,0.006-6.785-14.515-8.525
						C671.969,863.443,670.068,868.391,686.484,871.968z"/>
					<path style="fill:#657A44;" d="M707.226,865.924c0,0-23.856-1.337-21.855,5.908
						C685.37,871.831,703.826,873.798,707.226,865.924z"/>
				</g>
			</g>
		</g>
	</g>
	<g>
		<path style="fill:#FECA30;" d="M602.135,611.072l-6.639,11.477c-0.221,0.383-0.386,0.793-0.468,1.204
			c-0.736,3.692-2.203,21.837,33.154,42.943c2.255,1.346,6.131,3.215,8.599,4.182c5.292,2.073,12.449,4.995,27.89,1.512
			c0.823-0.186,1.631-0.801,2.179-1.642l9.549-13.014c0.978-1.502,0.866-3.302-0.248-4.005l-70.173-44.273
			C604.822,608.726,603.063,609.467,602.135,611.072z"/>
		<g>
			<g>
				
					<ellipse transform="matrix(0.5373 -0.8434 0.8434 0.5373 -236.644 832.8082)" style="fill:#FEEB4A;" cx="640.674" cy="632.074" rx="22.178" ry="43.932"/>
				
					<ellipse transform="matrix(0.5373 -0.8434 0.8434 0.5373 -236.6105 832.7333)" style="fill:#EC9E26;" cx="640.623" cy="632.006" rx="18.817" ry="37.276"/>
				
					<ellipse transform="matrix(0.5374 -0.8433 0.8433 0.5374 -237.2528 830.9662)" style="fill:#FECA30;" cx="638.812" cy="631.743" rx="17.764" ry="35.169"/>
			</g>
			<g>
				<g>
					<path style="fill:#0E513C;" d="M636.987,645.666c-2.921-6.073,2.065-13.739,2.279-14.062l2.042,1.348
						c-0.045,0.068-4.433,6.836-2.116,11.654L636.987,645.666z"/>
				</g>
				<g>
					<path style="fill:#657A44;" d="M639.356,632.691c0,0,5.55-7.217,18.422,0.773C657.778,633.464,655.226,640.012,639.356,632.691
						z"/>
					<path style="fill:#657A44;" d="M627.95,612.209c0,0,19.903,14.745,12.395,21.091C640.345,633.3,624.185,622.884,627.95,612.209
						z"/>
				</g>
			</g>
		</g>
	</g>
	<g>
		<rect x="558.881" y="492.709" style="fill:#FEEB4A;" width="4.078" height="45.269"/>
	</g>
	<g>
		<rect x="612.715" y="504.943" style="fill:#FEEB4A;" width="4.078" height="45.269"/>
	</g>
	<g>
		<rect x="612.647" y="491.076" style="fill:#FEEB4A;" width="4.078" height="8.564"/>
	</g>
	<g>
		<rect x="573.564" y="518.402" style="fill:#FEEB4A;" width="4.078" height="88.499"/>
	</g>
</g>
</svg>
