<?xml version="1.0" encoding="utf-8"?>
<!-- Generator: Adobe Illustrator 27.5.0, SVG Export Plug-In . SVG Version: 6.00 Build 0)  -->
<svg version="1.1" xmlns="http://www.w3.org/2000/svg" xmlns:xlink="http://www.w3.org/1999/xlink" x="0px" y="0px"
	 viewBox="0 0 1122 1122" style="enable-background:new 0 0 1122 1122;" xml:space="preserve">
<g id="BG">
	<rect x="0" y="0" style="fill:#E8EAEA;" width="1122" height="1122"/>
</g>
<g id="Objects">
	<g>
		
			<ellipse transform="matrix(0.9941 -0.1085 0.1085 0.9941 -89.8616 55.4041)" style="fill:#A3A29D;" cx="464.125" cy="853.354" rx="322.524" ry="52.067"/>
		<g>
			<rect x="409.977" y="548.062" style="fill:#03272C;" width="374.706" height="271.435"/>
			<ellipse style="fill:#447762;" cx="597.332" cy="819.194" rx="187.353" ry="50.591"/>
			<ellipse style="fill:#447762;" cx="597.327" cy="547.759" rx="187.353" ry="50.591"/>
			<rect x="547.144" y="541.914" style="fill:#FFFFFF;" width="89.089" height="13.41"/>
		</g>
		<g>
			<path style="fill:#FECA30;" d="M442.573,816.545l0.411,5.752c0.014,0.192,0.064,0.38,0.156,0.549
				c0.826,1.519,5.948,8.473,30.266,7.781c1.551-0.044,4.073-0.282,5.607-0.515c3.29-0.499,7.777-1.131,14.303-6.058
				c0.348-0.263,0.55-0.678,0.55-1.114l0.535-7.001c0-0.779-0.635-1.408-1.414-1.4l-49.033,0.506
				C443.149,815.054,442.516,815.74,442.573,816.545z"/>
			<g>
				<g>
					<path style="fill:#FEEB4A;" d="M442.772,816.658c2.175,5.248,15.428,8.787,29.601,7.905c14.173-0.882,23.9-5.852,21.725-11.1
						c-2.175-5.248-15.428-8.787-29.601-7.905C450.323,806.44,440.596,811.41,442.772,816.658z"/>
					<path style="fill:#EC9E26;" d="M446.613,816.403c1.845,4.453,13.09,7.456,25.116,6.707c12.026-0.748,20.279-4.965,18.433-9.418
						c-1.845-4.453-13.09-7.456-25.116-6.707C453.02,807.734,444.767,811.95,446.613,816.403z"/>
					<path style="fill:#FECA30;" d="M446.946,816.848c2.023,4.185,12.823,6.921,24.122,6.111s18.82-4.859,16.797-9.044
						c-2.023-4.185-12.823-6.921-24.122-6.111C452.443,808.614,444.923,812.663,446.946,816.848z"/>
				</g>
				<g>
					<g>
						<path style="fill:#0E513C;" d="M470.811,821.67c-3.861-1.723-3.863-6.263-3.861-6.456l2.718,0.026l-1.359-0.013l1.359,0.006
							c0,0.12,0.029,2.964,2.251,3.955L470.811,821.67z"/>
					</g>
					<g>
						<path style="fill:#657A44;" d="M467.98,815.597c0,0,0.423-3.943,9.375-4.084C477.355,811.514,478.202,814.503,467.98,815.597z
							"/>
						<path style="fill:#657A44;" d="M455.728,810.842c0,0,14.612,0.653,12.939,4.743
							C468.667,815.585,457.304,815.621,455.728,810.842z"/>
					</g>
				</g>
			</g>
		</g>
		<g>
			<path style="fill:#FECA30;" d="M566.788,791.914l0.411,5.752c0.014,0.192,0.064,0.38,0.156,0.549
				c0.826,1.519,5.948,8.473,30.266,7.78c1.551-0.044,4.073-0.282,5.607-0.515c3.29-0.499,7.777-1.131,14.303-6.058
				c0.348-0.263,0.55-0.678,0.55-1.114l0.535-7.001c0-0.779-0.635-1.408-1.414-1.4l-49.033,0.506
				C567.363,790.423,566.73,791.109,566.788,791.914z"/>
			<g>
				<g>
					<path style="fill:#FEEB4A;" d="M566.986,792.027c2.175,5.248,15.428,8.787,29.601,7.905c14.174-0.882,23.9-5.852,21.725-11.1
						c-2.175-5.248-15.428-8.787-29.601-7.905S564.811,786.779,566.986,792.027z"/>
					
						<ellipse transform="matrix(1 -0.0061 0.0061 1 -4.8451 3.6559)" style="fill:#EC9E26;" cx="592.602" cy="790.417" rx="22.03" ry="8.175"/>
					
						<ellipse transform="matrix(1 -0.0061 0.0061 1 -4.7797 3.5987)" style="fill:#FECA30;" cx="591.62" cy="790.75" rx="20.785" ry="7.717"/>
				</g>
				<g>
					<g>
						<path style="fill:#0E513C;" d="M595.025,797.039c-3.862-1.724-3.862-6.264-3.861-6.456l2.717,0.019
							c0,0.121,0.028,2.964,2.251,3.955L595.025,797.039z"/>
					</g>
					<g>
						<path style="fill:#657A44;" d="M592.195,790.966c0,0,0.423-3.943,9.375-4.083C601.57,786.883,602.417,789.872,592.195,790.966
							z"/>
						<path style="fill:#657A44;" d="M579.943,786.211c0,0,14.612,0.653,12.939,4.743
							C592.881,790.954,581.518,790.99,579.943,786.211z"/>
					</g>
				</g>
			</g>
		</g>
		<g>
			<path style="fill:#FECA30;" d="M436.148,805.301l0.411,5.752c0.014,0.192,0.064,0.38,0.156,0.549
				c0.826,1.519,5.948,8.473,30.266,7.78c1.551-0.044,4.073-0.282,5.607-0.515c3.29-0.499,7.777-1.131,14.303-6.058
				c0.348-0.263,0.55-0.678,0.55-1.114l0.535-7.001c0-0.779-0.636-1.408-1.414-1.399l-49.033,0.506
				C436.724,803.81,436.091,804.497,436.148,805.301z"/>
			<g>
				<g>
					
						<ellipse transform="matrix(1 -0.0061 0.0061 1 -4.9306 2.8542)" style="fill:#FEEB4A;" cx="462.01" cy="803.817" rx="25.964" ry="9.635"/>
					<path style="fill:#EC9E26;" d="M440.188,805.16c1.845,4.453,13.09,7.456,25.116,6.707c12.026-0.748,20.279-4.965,18.433-9.418
						c-1.845-4.453-13.09-7.456-25.116-6.707C446.595,796.49,438.342,800.707,440.188,805.16z"/>
					<path style="fill:#FECA30;" d="M440.521,805.604c2.023,4.185,12.823,6.921,24.122,6.111c11.299-0.81,18.82-4.859,16.797-9.044
						c-2.023-4.185-12.823-6.921-24.122-6.111C446.018,797.37,438.498,801.419,440.521,805.604z"/>
				</g>
				<g>
					<g>
						<path style="fill:#0E513C;" d="M464.386,810.426c-3.861-1.723-3.863-6.263-3.861-6.456l2.717,0.026l-1.359-0.013l1.359,0.006
							c0,0.121,0.029,2.964,2.251,3.955L464.386,810.426z"/>
					</g>
					<g>
						<path style="fill:#657A44;" d="M461.555,804.354c0,0,0.423-3.943,9.375-4.083C470.93,800.27,471.777,803.259,461.555,804.354z
							"/>
						<path style="fill:#657A44;" d="M449.303,799.599c0,0,14.612,0.653,12.939,4.743
							C462.242,804.341,450.879,804.378,449.303,799.599z"/>
					</g>
				</g>
			</g>
		</g>
		<g>
			<path style="fill:#FECA30;" d="M498.579,789.773l-0.411,5.752c-0.014,0.192-0.064,0.38-0.156,0.549
				c-0.826,1.519-5.947,8.473-30.266,7.782c-1.551-0.044-4.073-0.282-5.607-0.515c-3.29-0.499-7.777-1.131-14.303-6.057
				c-0.348-0.263-0.55-0.678-0.55-1.114l-0.535-7.001c0-0.779,0.635-1.408,1.414-1.4l49.033,0.505
				C498.004,788.282,498.636,788.969,498.579,789.773z"/>
			<g>
				<g>
					<path style="fill:#FEEB4A;" d="M498.381,789.886c-2.175,5.248-15.428,8.788-29.601,7.906
						c-14.173-0.882-23.9-5.851-21.725-11.099c2.175-5.248,15.428-8.788,29.601-7.906
						C490.829,779.669,500.556,784.638,498.381,789.886z"/>
					
						<ellipse transform="matrix(0.0061 -1 1 0.0061 -318.3869 1256.2161)" style="fill:#EC9E26;" cx="472.765" cy="788.277" rx="8.175" ry="22.03"/>
					
						<ellipse transform="matrix(0.006 -1 1 0.006 -317.7024 1257.599)" style="fill:#FECA30;" cx="473.747" cy="788.61" rx="7.717" ry="20.785"/>
				</g>
				<g>
					<g>
						<path style="fill:#0E513C;" d="M470.341,794.899l-1.108-2.482c2.254-1.006,2.251-3.919,2.251-3.948l2.717-0.027
							C474.204,788.635,474.204,793.176,470.341,794.899z"/>
					</g>
					<g>
						<path style="fill:#657A44;" d="M473.172,788.827c0,0-0.423-3.943-9.375-4.083C463.797,784.744,462.95,787.732,473.172,788.827
							z"/>
						<path style="fill:#657A44;" d="M485.424,784.071c0,0-14.612,0.653-12.939,4.743
							C472.485,788.814,483.849,788.85,485.424,784.071z"/>
					</g>
				</g>
			</g>
		</g>
		<g>
			<path style="fill:#FECA30;" d="M635.663,804.175l-1.102,6.384c-0.037,0.213-0.112,0.418-0.23,0.597
				c-1.056,1.607-7.32,8.817-33.176,5.367c-1.649-0.22-4.311-0.763-5.921-1.192c-3.451-0.92-8.164-2.12-14.556-8.345
				c-0.341-0.332-0.508-0.819-0.458-1.306l0.236-7.885c0.09-0.87,0.84-1.503,1.669-1.409l52.235,5.961
				C635.222,802.445,635.817,803.282,635.663,804.175z"/>
			<g>
				<g>
					
						<ellipse transform="matrix(0.1091 -0.994 0.994 0.1091 -253.0144 1317.0327)" style="fill:#FEEB4A;" cx="608.253" cy="799.671" rx="10.827" ry="27.838"/>
					<path style="fill:#EC9E26;" d="M631.372,803.573c-2.482,4.774-14.821,6.894-27.56,4.734
						c-12.739-2.16-21.055-7.781-18.573-12.556c2.482-4.774,14.821-6.894,27.56-4.734
						C625.538,793.177,633.853,798.798,631.372,803.573z"/>
					<path style="fill:#FECA30;" d="M630.965,804.033c-2.64,4.455-14.474,6.325-26.431,4.177
						c-11.958-2.149-19.511-7.503-16.871-11.958c2.64-4.455,14.474-6.325,26.431-4.177S633.605,799.577,630.965,804.033z"/>
				</g>
				<g>
					<g>
						<path style="fill:#0E513C;" d="M604.956,806.633l-0.893-2.567c2.603-0.905,2.949-4.288,2.953-4.322l2.705,0.254
							C609.701,800.208,609.189,805.16,604.956,806.633z"/>
					</g>
					<g>
						<path style="fill:#657A44;" d="M608.676,800.321c0,0,0.004-4.454-9.528-5.596C599.148,794.725,597.9,797.973,608.676,800.321z
							"/>
						<path style="fill:#657A44;" d="M622.291,796.353c0,0-15.659-0.878-14.346,3.878
							C607.945,800.231,620.06,801.522,622.291,796.353z"/>
					</g>
				</g>
			</g>
		</g>
		<g>
			<path style="fill:#FECA30;" d="M685.991,694.182l4.125,7.663c0.138,0.256,0.31,0.489,0.511,0.676
				c1.809,1.683,11.442,8.754,35.416-3.73c1.529-0.796,3.908-2.318,5.299-3.364c2.982-2.243,7.08-5.235,10.453-15.062
				c0.18-0.524,0.115-1.188-0.167-1.783l-3.981-9.819c-0.503-1.064-1.547-1.622-2.323-1.241l-48.913,23.955
				C685.606,691.872,685.414,693.11,685.991,694.182z"/>
			<g>
				<g>
					
						<ellipse transform="matrix(0.9 -0.4359 0.4359 0.9 -225.2571 377.9167)" style="fill:#FEEB4A;" cx="711.003" cy="679.884" rx="28.838" ry="14.558"/>
					<path style="fill:#EC9E26;" d="M689.956,692.072c4.727,5.208,17.958,3.976,29.552-2.753
						c11.594-6.728,17.16-16.404,12.432-21.612c-4.727-5.208-17.958-3.975-29.552,2.753
						C690.794,677.188,685.228,686.864,689.956,692.072z"/>
					<path style="fill:#FECA30;" d="M690.578,692.521c4.733,4.758,17.344,3.371,28.168-3.097
						c10.824-6.468,15.762-15.568,11.03-20.325c-4.733-4.758-17.344-3.371-28.168,3.097
						C690.783,678.663,685.845,687.763,690.578,692.521z"/>
				</g>
				<g>
					<g>
						<path style="fill:#0E513C;" d="M717.269,687.179c-4.709-0.493-7.405-6.194-7.518-6.437l2.465-1.143l-1.232,0.572l1.231-0.574
							c0.592,1.264,2.704,4.604,5.337,4.879L717.269,687.179z"/>
					</g>
					<g>
						<path style="fill:#657A44;" d="M710.893,680.833c0,0-2.12-5.587,6.779-10.027
							C717.672,670.806,720.452,674.488,710.893,680.833z"/>
						<path style="fill:#657A44;" d="M695.52,680.149c0,0,15.095-6.041,16.055,0.341C711.575,680.49,700.187,685.931,695.52,680.149
							z"/>
					</g>
				</g>
			</g>
		</g>
		<g>
			<path d="M933.9,503.138c-7.02-5.921-16.101-10.314-23.786-15.237C848.497,448.43,786.88,408.96,725.264,369.49
				c-1.744-1.239-3.488-2.479-5.232-3.719c-1.304-0.927-11.43-2.219-10.921,0.896c2.099,12.846,1.919,14.762-4.099,26.583
				c-4.216,8.281-8.196,17.356-10.14,26.566c-0.375,1.776-1.028,9.881-1.088,9.981c-2.83,4.715-13.635,8.85-18.325,11.894
				c-2.808,1.823,2.527,3.008,3.494,3.161c4.485,0.71,8.971,1.42,13.456,2.13c-2.105,36.854,19.56,63.018,53.138,76.269
				c24.386,9.624,51.756,3.966,75.147-5.315c11.18-4.436,22.036-9.832,32.313-16.124c3.511-2.149,8.258-4.501,11.208-7.493
				c0.487-0.493,5.288-6.439,2.361-6.141c5.229-0.534,21.556,16.201,25.898,19.471c6.466,4.869,13.918,12.737,21.733,15.233
				C926.732,526.885,947.931,514.973,933.9,503.138z"/>
			<path d="M785.489,545.113c-0.257-0.23-0.511-0.428-0.764-0.603c1.517-7.191,3.033-14.382,4.55-21.573
				c0.374-1.771-3.074-2.19-3.388-0.703c-1.508,7.148-3.015,14.295-4.522,21.442c-4.731,0.89-8.259,10.144-9.499,13.341
				c-0.527,1.358,2.945,1.704,3.389,0.56c1.309-3.373,2.762-7.834,5.404-10.55c-0.717,3.4-1.434,6.801-2.151,10.201
				c-0.374,1.771,3.074,2.191,3.388,0.703c0.684-3.242,1.368-6.485,2.052-9.727c1.15,2.26,1.798,4.881,2.193,7.36
				c0.218,1.369,3.707,1.26,3.515,0.055C789.107,552.183,788.174,547.521,785.489,545.113z"/>
			<path d="M770.47,525.062c-3.891,4.066-7.781,8.133-11.671,12.199c-0.64-0.113-1.314-0.109-1.954-0.011
				c-3.869,0.593-7.416,3.484-10.421,5.799c-1.675,1.29,1.365,2.479,2.482,1.618c2.223-1.712,4.709-3.783,7.418-4.819
				c-1.863,1.947-3.726,3.894-5.588,5.841c-1.275,1.333,2.074,2.2,3.033,1.197c1.511-1.579,3.023-3.159,4.534-4.739
				c-0.18,1.758-0.804,3.532-1.468,5.103c-0.638,1.509,2.833,1.959,3.389,0.647c0.993-2.349,2.275-5.754,1.442-8.325
				c-0.076-0.234-0.174-0.445-0.286-0.641c4.041-4.224,8.083-8.448,12.124-12.673C774.778,524.926,771.429,524.06,770.47,525.062z"
				/>
			<path style="fill:#FFFFFF;" d="M878.309,465.379c-30.234-18.869-60.469-37.739-90.703-56.608
				c-0.754-0.47-1.855-0.695-3.053-0.722c-2.402-0.336-5.042-0.004-6.151,1.224c-20.116,22.276-26.425,54.396,0.299,74.612
				c30.624,23.166,71.856,2.807,99.596-13.989C880.432,468.603,880.419,466.695,878.309,465.379z"/>
			<path style="fill:#FFFFFF;" d="M720.579,417.163c-1.058-4.096-3.038-7.127-4.423-6.769c-1.385,0.358-1.65,3.968-0.592,8.064
				c1.058,4.096,3.038,7.127,4.423,6.769C721.372,424.87,721.637,421.259,720.579,417.163z"/>
		</g>
	</g>
	<g>
		<path style="fill:#FECA30;" d="M388.169,280.134l7.731,14.36c0.258,0.479,0.581,0.917,0.958,1.268
			c3.391,3.154,21.442,16.405,66.368-6.99c2.866-1.492,7.324-4.344,9.93-6.304c5.587-4.203,13.267-9.81,19.589-28.226
			c0.337-0.982,0.215-2.225-0.313-3.341l-7.461-18.4c-0.942-1.993-2.898-3.039-4.354-2.326l-91.661,44.891
			C387.448,275.806,387.088,278.126,388.169,280.134z"/>
		<g>
			<g>
				
					<ellipse transform="matrix(0.9 -0.4359 0.4359 0.9 -66.9249 214.9685)" style="fill:#FEEB4A;" cx="435.042" cy="253.341" rx="54.041" ry="27.28"/>
				
					<ellipse transform="matrix(0.9 -0.4359 0.4359 0.9 -66.9396 214.9254)" style="fill:#EC9E26;" cx="434.938" cy="253.351" rx="45.853" ry="23.147"/>
				
					<ellipse transform="matrix(0.9001 -0.4358 0.4358 0.9001 -67.8307 214.3987)" style="fill:#FECA30;" cx="433.492" cy="255.076" rx="43.262" ry="21.851"/>
			</g>
			<g>
				<g>
					<path style="fill:#0E513C;" d="M446.784,267.012c-8.824-0.924-13.877-11.607-14.088-12.062l4.618-2.143l-2.309,1.071
						l2.308-1.076c1.109,2.368,5.068,8.628,10.001,9.144L446.784,267.012z"/>
				</g>
				<g>
					<path style="fill:#657A44;" d="M434.836,255.119c0,0-3.974-10.47,12.703-18.789
						C447.539,236.33,452.748,243.229,434.836,255.119z"/>
					<path style="fill:#657A44;" d="M406.027,253.839c0,0,28.288-11.32,30.086,0.638
						C436.113,254.477,414.773,264.673,406.027,253.839z"/>
				</g>
			</g>
		</g>
	</g>
	<g>
		<g>
			
				<ellipse transform="matrix(0.383 -0.9237 0.9237 0.383 -9.4645 749.129)" style="fill:#FEEB4A;" cx="556.078" cy="381.65" rx="51.368" ry="51.368"/>
			
				<ellipse transform="matrix(0.0398 -0.9992 0.9992 0.0398 152.7598 922.0655)" style="fill:#EC9E26;" cx="556.138" cy="381.551" rx="43.585" ry="43.585"/>
			
				<ellipse transform="matrix(0.9766 -0.2149 0.2149 0.9766 -69.1389 128.9996)" style="fill:#FECA30;" cx="558.603" cy="382.418" rx="41.121" ry="41.145"/>
		</g>
		<g>
			<g>
				<path style="fill:#0E513C;" d="M562.865,410.712l-2.218-0.67c2.635-8.719-4.99-27.04-5.068-27.224l2.136-0.898
					C558.044,382.703,565.74,401.197,562.865,410.712z"/>
			</g>
			<g>
				<path style="fill:#657A44;" d="M558.003,383.935c0,0-8.845-19.075-25.388-12.727
					C532.615,371.207,537.201,386.585,558.003,383.935z"/>
				<path style="fill:#657A44;" d="M570.507,350.895c0,0-25.194,14.703-13.777,33.518
					C556.73,384.413,577.437,375.657,570.507,350.895z"/>
			</g>
		</g>
	</g>
	<g>
		<path style="fill:#FECA30;" d="M252.487,350.996l-3.258,15.98c-0.109,0.533-0.141,1.076-0.076,1.587
			c0.585,4.594,5.964,26.331,55.451,37.132c3.157,0.689,8.407,1.354,11.663,1.517c6.983,0.35,16.472,0.962,33.121-9.135
			c0.887-0.538,1.59-1.572,1.899-2.766l6.052-18.91c0.553-2.134-0.28-4.19-1.855-4.575l-99.149-24.218
			C254.705,347.21,252.943,348.761,252.487,350.996z"/>
		<g>
			<g>
				
					<ellipse transform="matrix(0.2415 -0.9704 0.9704 0.2415 -117.9388 569.9725)" style="fill:#FEEB4A;" cx="305.646" cy="360.432" rx="27.281" ry="54.041"/>
				
					<ellipse transform="matrix(0.2415 -0.9704 0.9704 0.2415 -117.9468 569.8438)" style="fill:#EC9E26;" cx="305.559" cy="360.373" rx="23.147" ry="45.853"/>
				
					<ellipse transform="matrix(0.2417 -0.9704 0.9704 0.2417 -120.043 567.9403)" style="fill:#FECA30;" cx="303.344" cy="360.773" rx="21.851" ry="43.262"/>
			</g>
			<g>
				<g>
					<path style="fill:#0E513C;" d="M305.91,378.453c-6.186-6.36-3.226-17.802-3.096-18.286l4.919,1.312l-2.46-0.656l2.461,0.652
						c-0.665,2.529-1.632,9.872,1.827,13.428L305.91,378.453z"/>
				</g>
				<g>
					<path style="fill:#657A44;" d="M304.349,361.667c0,0,3.653-10.587,21.789-6.297
						C326.138,355.37,325.721,364.004,304.349,361.667z"/>
					<path style="fill:#657A44;" d="M283.042,342.235c0,0,28.976,9.42,22.699,19.756
						C305.741,361.991,282.821,356.156,283.042,342.235z"/>
				</g>
			</g>
		</g>
	</g>
</g>
</svg>
