<svg width="71" height="70" viewBox="0 0 71 70" fill="none" xmlns="http://www.w3.org/2000/svg">
<rect x="20.1348" y="30.6216" width="29.2116" height="8.31021" rx="4.1551" fill="#2A125E"/>
<rect x="18.4375" y="34.3477" width="29.2116" height="8.31021" rx="4.1551" transform="rotate(-40.6804 18.4375 34.3477)" fill="#4C20AA"/>
<rect x="23.6602" y="47.9004" width="29.2116" height="8.31021" rx="4.1551" transform="rotate(-40.6804 23.6602 47.9004)" fill="#4C20AA"/>
<path fill-rule="evenodd" clip-rule="evenodd" d="M36.7183 63.9097C36.7183 63.1767 37.2904 62.5745 38.0193 62.4969C51.8667 61.0228 62.6532 49.3036 62.6532 35.0651C62.6532 33.3342 62.4938 31.6406 62.1889 29.998C62.0724 29.3706 62.3711 28.733 62.9421 28.4481L67.3184 26.2646C68.0953 25.877 69.0348 26.2917 69.2303 27.1376C69.819 29.6851 70.1301 32.3387 70.1301 35.0651C70.1301 53.3858 56.0798 68.4249 38.1666 69.9949C37.3797 70.0638 36.7183 69.4314 36.7183 68.6415V63.9097ZM35.0651 7.47695C46.2663 7.47695 55.9084 14.1525 60.23 23.7422C60.5655 24.4867 61.4489 24.8323 62.1795 24.4678L66.3829 22.3705C67.0314 22.0469 67.3234 21.2766 67.0244 20.6164C61.5191 8.45829 49.2799 0 35.0651 0C21.4593 0 9.66341 7.74903 3.85003 19.0745C3.5173 19.7227 3.77577 20.5105 4.41369 20.8626L8.526 23.1323C9.23643 23.5244 10.1278 23.2223 10.4978 22.5001C15.0687 13.5809 24.3541 7.47695 35.0651 7.47695ZM7.54397 27.0473C8.10697 27.358 8.37825 28.0146 8.22904 28.6401C7.7373 30.7017 7.47695 32.853 7.47695 35.0651C7.47695 49.2671 18.2082 60.9626 32.0044 62.4853C32.7308 62.5655 33.2997 63.1667 33.2997 63.8976V68.6315C33.2997 69.4231 32.6355 70.0562 31.8471 69.9845C13.9895 68.3597 0 53.3461 0 35.0651C0 31.7391 0.463058 28.5213 1.32822 25.4726C1.5641 24.6414 2.5156 24.272 3.27205 24.6895L7.54397 27.0473Z" fill="#4C20AA"/>
</svg>
