<svg width="325" height="70" viewBox="0 0 325 70" fill="none" xmlns="http://www.w3.org/2000/svg">
<rect x="20.1348" y="30.6216" width="29.2116" height="8.31021" rx="4.1551" fill="#2A125E"/>
<rect x="18.4375" y="34.3477" width="29.2116" height="8.31021" rx="4.1551" transform="rotate(-40.6804 18.4375 34.3477)" fill="#4C20AA"/>
<rect x="23.6602" y="47.9004" width="29.2116" height="8.31021" rx="4.1551" transform="rotate(-40.6804 23.6602 47.9004)" fill="#4C20AA"/>
<path fill-rule="evenodd" clip-rule="evenodd" d="M36.7183 63.9097C36.7183 63.1767 37.2904 62.5745 38.0193 62.4969C51.8667 61.0228 62.6532 49.3036 62.6532 35.0651C62.6532 33.3342 62.4938 31.6406 62.1889 29.998C62.0724 29.3706 62.3711 28.733 62.9421 28.4481L67.3184 26.2646C68.0953 25.877 69.0348 26.2917 69.2303 27.1376C69.819 29.6851 70.1301 32.3387 70.1301 35.0651C70.1301 53.3858 56.0798 68.4249 38.1666 69.9949C37.3797 70.0638 36.7183 69.4314 36.7183 68.6415V63.9097ZM35.0651 7.47695C46.2663 7.47695 55.9084 14.1525 60.23 23.7422C60.5655 24.4867 61.4489 24.8323 62.1795 24.4678L66.3829 22.3705C67.0314 22.0469 67.3234 21.2766 67.0244 20.6164C61.5191 8.45829 49.2799 0 35.0651 0C21.4593 0 9.66341 7.74903 3.85003 19.0745C3.5173 19.7227 3.77577 20.5105 4.41369 20.8626L8.526 23.1323C9.23643 23.5244 10.1278 23.2223 10.4978 22.5001C15.0687 13.5809 24.3541 7.47695 35.0651 7.47695ZM7.54397 27.0473C8.10697 27.358 8.37825 28.0146 8.22904 28.6401C7.7373 30.7017 7.47695 32.853 7.47695 35.0651C7.47695 49.2671 18.2082 60.9626 32.0044 62.4853C32.7308 62.5655 33.2997 63.1667 33.2997 63.8976V68.6315C33.2997 69.4231 32.6355 70.0562 31.8471 69.9845C13.9895 68.3597 0 53.3461 0 35.0651C0 31.7391 0.463058 28.5213 1.32822 25.4726C1.5641 24.6414 2.5156 24.272 3.27205 24.6895L7.54397 27.0473Z" fill="#4C20AA"/>
<path d="M121.898 20.962C120.19 20.0267 118.441 19.254 116.652 18.644C114.903 18.034 113.256 17.729 111.711 17.729C109.8 17.729 108.295 18.1153 107.197 18.888C106.099 19.6607 105.55 20.8197 105.55 22.365C105.55 23.4223 105.957 24.378 106.77 25.232C107.624 26.0453 108.702 26.7773 110.003 27.428C111.345 28.0787 112.728 28.6683 114.151 29.197C115.452 29.685 116.733 30.2747 117.994 30.966C119.295 31.6167 120.454 32.4503 121.471 33.467C122.488 34.443 123.301 35.6833 123.911 37.188C124.521 38.652 124.826 40.4617 124.826 42.617C124.826 44.8943 124.236 47.009 123.057 48.961C121.878 50.913 120.149 52.499 117.872 53.719C115.595 54.8983 112.789 55.488 109.454 55.488C107.746 55.488 105.997 55.3253 104.208 55C102.459 54.634 100.731 54.1053 99.0229 53.414C97.3149 52.682 95.6679 51.767 94.0819 50.669L97.9859 43.776C99.0432 44.5487 100.182 45.24 101.402 45.85C102.663 46.4193 103.923 46.8667 105.184 47.192C106.445 47.5173 107.604 47.68 108.661 47.68C109.718 47.68 110.776 47.5377 111.833 47.253C112.931 46.9277 113.826 46.399 114.517 45.667C115.249 44.935 115.615 43.9183 115.615 42.617C115.615 41.7223 115.31 40.909 114.7 40.177C114.131 39.445 113.338 38.774 112.321 38.164C111.345 37.554 110.267 37.0253 109.088 36.578C107.705 36.0493 106.282 35.4393 104.818 34.748C103.354 34.0567 101.971 33.223 100.67 32.247C99.4092 31.2303 98.3722 29.99 97.5589 28.526C96.7862 27.0213 96.3999 25.1913 96.3999 23.036C96.3999 20.4333 96.9692 18.1763 98.1079 16.265C99.2872 14.3537 100.934 12.849 103.049 11.751C105.164 10.6123 107.604 9.982 110.369 9.86C113.988 9.86 116.916 10.287 119.153 11.141C121.43 11.995 123.464 13.0117 125.253 14.191L121.898 20.962ZM148.799 55.732C147.213 55.732 145.648 55.4473 144.102 54.878C142.598 54.268 141.337 53.414 140.32 52.316L140.564 49.815V67.81H132.085V27.733H139.405L140.625 32.918L139.954 31.088C141.337 29.9087 142.882 28.9327 144.59 28.16C146.298 27.3873 148.271 27.001 150.507 27.001C152.988 27.001 155.204 27.5907 157.156 28.77C159.108 29.9087 160.633 31.576 161.731 33.772C162.87 35.9273 163.439 38.53 163.439 41.58C163.439 44.5893 162.809 47.1513 161.548 49.266C160.288 51.3807 158.559 52.987 156.363 54.085C154.167 55.183 151.646 55.732 148.799 55.732ZM147.091 49.022C148.474 49.022 149.735 48.717 150.873 48.107C152.053 47.497 152.988 46.643 153.679 45.545C154.411 44.4063 154.777 43.1253 154.777 41.702C154.777 40.1973 154.452 38.896 153.801 37.798C153.191 36.6593 152.337 35.785 151.239 35.175C150.182 34.5243 149.003 34.199 147.701 34.199C146.563 34.199 145.546 34.3617 144.651 34.687C143.797 34.9717 143.025 35.419 142.333 36.029C141.683 36.5983 141.113 37.3303 140.625 38.225V44.752C140.951 45.606 141.418 46.3583 142.028 47.009C142.638 47.6597 143.37 48.168 144.224 48.534C145.119 48.8593 146.075 49.022 147.091 49.022ZM183.266 55.732C180.012 55.732 177.247 55.122 174.97 53.902C172.733 52.682 171.025 50.9943 169.846 48.839C168.666 46.6837 168.077 44.203 168.077 41.397C168.077 38.713 168.768 36.2933 170.151 34.138C171.533 31.9827 173.384 30.2747 175.702 29.014C178.02 27.7127 180.602 27.062 183.449 27.062C187.271 27.062 190.403 28.1803 192.843 30.417C195.323 32.613 196.93 35.8053 197.662 39.994L176.922 46.582L175.031 41.946L190.037 36.883L188.268 37.676C187.942 36.6187 187.353 35.7037 186.499 34.931C185.685 34.1177 184.445 33.711 182.778 33.711C181.517 33.711 180.399 34.016 179.423 34.626C178.487 35.1953 177.755 36.029 177.227 37.127C176.739 38.1843 176.495 39.445 176.495 40.909C176.495 42.5763 176.8 43.9793 177.41 45.118C178.02 46.216 178.853 47.0497 179.911 47.619C180.968 48.1883 182.147 48.473 183.449 48.473C184.384 48.473 185.279 48.3103 186.133 47.985C187.027 47.6597 187.902 47.2327 188.756 46.704L192.538 53.048C191.114 53.8613 189.569 54.512 187.902 55C186.275 55.488 184.73 55.732 183.266 55.732ZM211.615 28.343L212.286 33.101L212.164 32.674C213.099 31.0067 214.421 29.6647 216.129 28.648C217.837 27.5907 219.931 27.062 222.412 27.062C224.933 27.062 227.027 27.8143 228.695 29.319C230.403 30.783 231.277 32.6943 231.318 35.053V55H222.778V38.225C222.737 37.0457 222.412 36.1103 221.802 35.419C221.232 34.687 220.256 34.321 218.874 34.321C217.572 34.321 216.434 34.748 215.458 35.602C214.482 36.456 213.729 37.615 213.201 39.079C212.672 40.543 212.408 42.2307 212.408 44.142V55H203.868V28.343H211.615ZM250.944 55.732C248.464 55.732 246.247 55.1627 244.295 54.024C242.343 52.8447 240.798 51.157 239.659 48.961C238.561 46.765 238.012 44.1623 238.012 41.153C238.012 38.1437 238.622 35.5817 239.842 33.467C241.062 31.3523 242.73 29.746 244.844 28.648C246.959 27.55 249.358 27.001 252.042 27.001C253.75 27.001 255.377 27.2653 256.922 27.794C258.508 28.3227 259.83 29.136 260.887 30.234V32.918V6.871H269.366V55H260.826V49.815L261.497 51.645C260.115 52.7837 258.569 53.7597 256.861 54.573C255.153 55.3457 253.181 55.732 250.944 55.732ZM253.75 48.534C254.889 48.534 255.885 48.3917 256.739 48.107C257.634 47.7817 258.407 47.3343 259.057 46.765C259.749 46.155 260.338 45.4027 260.826 44.508V37.981C260.501 37.0863 259.993 36.334 259.301 35.724C258.651 35.0733 257.837 34.5853 256.861 34.26C255.926 33.894 254.889 33.711 253.75 33.711C252.49 33.711 251.31 34.0363 250.212 34.687C249.155 35.297 248.301 36.151 247.65 37.249C247 38.347 246.674 39.6077 246.674 41.031C246.674 42.4543 247 43.7353 247.65 44.874C248.301 46.0127 249.155 46.9073 250.212 47.558C251.31 48.2087 252.49 48.534 253.75 48.534ZM278.152 6.871H286.692V55H278.152V6.871ZM297.622 67.81L315.373 28.343H323.059L305.857 67.81H297.622ZM304.759 55.122L291.705 28.343H301.282L311.347 50.852L304.759 55.122Z" fill="#4C20AA"/>
</svg>
