<svg width="233" height="70" viewBox="0 0 233 70" fill="none" xmlns="http://www.w3.org/2000/svg">
<path d="M29.8334 16.462C28.1254 15.5267 26.3768 14.754 24.5874 14.144C22.8388 13.534 21.1918 13.229 19.6464 13.229C17.7351 13.229 16.2304 13.6153 15.1324 14.388C14.0344 15.1607 13.4854 16.3197 13.4854 17.865C13.4854 18.9223 13.8921 19.878 14.7054 20.732C15.5594 21.5453 16.6371 22.2773 17.9384 22.928C19.2804 23.5787 20.6631 24.1683 22.0864 24.697C23.3878 25.185 24.6688 25.7747 25.9294 26.466C27.2308 27.1167 28.3898 27.9503 29.4064 28.967C30.4231 29.943 31.2364 31.1833 31.8464 32.688C32.4564 34.152 32.7614 35.9617 32.7614 38.117C32.7614 40.3943 32.1718 42.509 30.9924 44.461C29.8131 46.413 28.0848 47.999 25.8074 49.219C23.5301 50.3983 20.7241 50.988 17.3894 50.988C15.6814 50.988 13.9328 50.8253 12.1434 50.5C10.3948 50.134 8.66643 49.6053 6.95843 48.914C5.25043 48.182 3.60343 47.267 2.01743 46.169L5.92143 39.276C6.97876 40.0487 8.11743 40.74 9.33743 41.35C10.5981 41.9193 11.8588 42.3667 13.1194 42.692C14.3801 43.0173 15.5391 43.18 16.5964 43.18C17.6538 43.18 18.7111 43.0377 19.7684 42.753C20.8664 42.4277 21.7611 41.899 22.4524 41.167C23.1844 40.435 23.5504 39.4183 23.5504 38.117C23.5504 37.2223 23.2454 36.409 22.6354 35.677C22.0661 34.945 21.2731 34.274 20.2564 33.664C19.2804 33.054 18.2028 32.5253 17.0234 32.078C15.6408 31.5493 14.2174 30.9393 12.7534 30.248C11.2894 29.5567 9.90676 28.723 8.60543 27.747C7.34476 26.7303 6.30776 25.49 5.49443 24.026C4.72176 22.5213 4.33543 20.6913 4.33543 18.536C4.33543 15.9333 4.90476 13.6763 6.04343 11.765C7.22276 9.85366 8.86976 8.349 10.9844 7.251C13.0991 6.11233 15.5391 5.482 18.3044 5.36C21.9238 5.36 24.8518 5.787 27.0884 6.641C29.3658 7.495 31.3991 8.51167 33.1884 9.691L29.8334 16.462ZM56.7349 51.232C55.1489 51.232 53.5832 50.9473 52.0379 50.378C50.5332 49.768 49.2726 48.914 48.2559 47.816L48.4999 45.315V63.31H40.0209V23.233H47.3409L48.5609 28.418L47.8899 26.588C49.2726 25.4087 50.8179 24.4327 52.5259 23.66C54.2339 22.8873 56.2062 22.501 58.4429 22.501C60.9236 22.501 63.1399 23.0907 65.0919 24.27C67.0439 25.4087 68.5689 27.076 69.6669 29.272C70.8056 31.4273 71.3749 34.03 71.3749 37.08C71.3749 40.0893 70.7446 42.6513 69.4839 44.766C68.2232 46.8807 66.4949 48.487 64.2989 49.585C62.1029 50.683 59.5816 51.232 56.7349 51.232ZM55.0269 44.522C56.4096 44.522 57.6702 44.217 58.8089 43.607C59.9882 42.997 60.9236 42.143 61.6149 41.045C62.3469 39.9063 62.7129 38.6253 62.7129 37.202C62.7129 35.6973 62.3876 34.396 61.7369 33.298C61.1269 32.1593 60.2729 31.285 59.1749 30.675C58.1176 30.0243 56.9382 29.699 55.6369 29.699C54.4982 29.699 53.4816 29.8617 52.5869 30.187C51.7329 30.4717 50.9602 30.919 50.2689 31.529C49.6182 32.0983 49.0489 32.8303 48.5609 33.725V40.252C48.8862 41.106 49.3539 41.8583 49.9639 42.509C50.5739 43.1597 51.3059 43.668 52.1599 44.034C53.0546 44.3593 54.0102 44.522 55.0269 44.522ZM91.2013 51.232C87.948 51.232 85.1827 50.622 82.9053 49.402C80.6687 48.182 78.9607 46.4943 77.7813 44.339C76.602 42.1837 76.0123 39.703 76.0123 36.897C76.0123 34.213 76.7037 31.7933 78.0863 29.638C79.469 27.4827 81.3193 25.7747 83.6373 24.514C85.9553 23.2127 88.5377 22.562 91.3843 22.562C95.207 22.562 98.3383 23.6803 100.778 25.917C103.259 28.113 104.865 31.3053 105.597 35.494L84.8573 42.082L82.9663 37.446L97.9723 32.383L96.2033 33.176C95.878 32.1187 95.2883 31.2037 94.4343 30.431C93.621 29.6177 92.3807 29.211 90.7133 29.211C89.4527 29.211 88.3343 29.516 87.3583 30.126C86.423 30.6953 85.691 31.529 85.1623 32.627C84.6743 33.6843 84.4303 34.945 84.4303 36.409C84.4303 38.0763 84.7353 39.4793 85.3453 40.618C85.9553 41.716 86.789 42.5497 87.8463 43.119C88.9037 43.6883 90.083 43.973 91.3843 43.973C92.3197 43.973 93.2143 43.8103 94.0683 43.485C94.963 43.1597 95.8373 42.7327 96.6913 42.204L100.473 48.548C99.05 49.3613 97.5047 50.012 95.8373 50.5C94.2107 50.988 92.6653 51.232 91.2013 51.232ZM119.55 23.843L120.221 28.601L120.099 28.174C121.034 26.5067 122.356 25.1647 124.064 24.148C125.772 23.0907 127.866 22.562 130.347 22.562C132.868 22.562 134.963 23.3143 136.63 24.819C138.338 26.283 139.212 28.1943 139.253 30.553V50.5H130.713V33.725C130.672 32.5457 130.347 31.6103 129.737 30.919C129.168 30.187 128.192 29.821 126.809 29.821C125.508 29.821 124.369 30.248 123.393 31.102C122.417 31.956 121.665 33.115 121.136 34.579C120.607 36.043 120.343 37.7307 120.343 39.642V50.5H111.803V23.843H119.55ZM158.88 51.232C156.399 51.232 154.183 50.6627 152.231 49.524C150.279 48.3447 148.734 46.657 147.595 44.461C146.497 42.265 145.948 39.6623 145.948 36.653C145.948 33.6437 146.558 31.0817 147.778 28.967C148.998 26.8523 150.665 25.246 152.78 24.148C154.895 23.05 157.294 22.501 159.978 22.501C161.686 22.501 163.313 22.7653 164.858 23.294C166.444 23.8227 167.766 24.636 168.823 25.734V28.418V2.371H177.302V50.5H168.762V45.315L169.433 47.145C168.05 48.2837 166.505 49.2597 164.797 50.073C163.089 50.8457 161.117 51.232 158.88 51.232ZM161.686 44.034C162.825 44.034 163.821 43.8917 164.675 43.607C165.57 43.2817 166.342 42.8343 166.993 42.265C167.684 41.655 168.274 40.9027 168.762 40.008V33.481C168.437 32.5863 167.928 31.834 167.237 31.224C166.586 30.5733 165.773 30.0853 164.797 29.76C163.862 29.394 162.825 29.211 161.686 29.211C160.425 29.211 159.246 29.5363 158.148 30.187C157.091 30.797 156.237 31.651 155.586 32.749C154.935 33.847 154.61 35.1077 154.61 36.531C154.61 37.9543 154.935 39.2353 155.586 40.374C156.237 41.5127 157.091 42.4073 158.148 43.058C159.246 43.7087 160.425 44.034 161.686 44.034ZM186.087 2.371H194.627V50.5H186.087V2.371ZM205.557 63.31L223.308 23.843H230.994L213.792 63.31H205.557ZM212.694 50.622L199.64 23.843H209.217L219.282 46.352L212.694 50.622Z" fill="#4C20AA"/>
</svg>
